<?xml version="1.0" encoding="UTF-8"?>
<svg version="1.1" xmlns="http://www.w3.org/2000/svg" width="500" height="500">
<path d="M0 0 C165 0 330 0 500 0 C500 165 500 330 500 500 C335 500 170 500 0 500 C0 335 0 170 0 0 Z " fill="#FEFEFE" transform="translate(0,0)"/>
<path d="M0 0 C0.763125 0.58265625 1.52625 1.1653125 2.3125 1.765625 C3.01375 2.28640625 3.715 2.8071875 4.4375 3.34375 C17.42296924 13.79299478 25.5750844 29.49039296 28.3125 45.765625 C28.83740125 52.62828954 28.66311487 59.52951604 28.60546875 66.40625 C28.599863 68.38449784 28.59559753 70.36274989 28.59260559 72.34100342 C28.58123389 77.50966191 28.55183402 82.67806142 28.51849365 87.84661865 C28.48762599 93.1359914 28.4740648 98.4254066 28.45898438 103.71484375 C28.42695595 114.06521701 28.37585407 124.41539934 28.3125 134.765625 C28.95457901 134.76300659 29.59665802 134.76038818 30.25819397 134.75769043 C33.22551214 134.74716466 36.19282637 134.74075072 39.16015625 134.734375 C40.1696936 134.73018555 41.17923096 134.72599609 42.21936035 134.72167969 C51.27858306 134.70714132 60.27790548 135.13399292 69.3125 135.765625 C69.3125 136.425625 69.3125 137.085625 69.3125 137.765625 C-1.3075 137.765625 -71.9275 137.765625 -144.6875 137.765625 C-144.6875 137.105625 -144.6875 136.445625 -144.6875 135.765625 C-135.7775 135.435625 -126.8675 135.105625 -117.6875 134.765625 C-121.97130341 130.04001685 -121.97130341 130.04001685 -124.9609375 128.47265625 C-127.31340475 126.14680062 -127.26434053 124.02037922 -127.34423828 120.81103516 C-127.33376465 120.0329248 -127.32329102 119.25481445 -127.3125 118.453125 C-127.30847168 117.65438965 -127.30444336 116.8556543 -127.30029297 116.03271484 C-127.03197503 107.9687165 -124.46379844 101.82906405 -120.6875 94.765625 C-120.01908642 93.43316656 -119.35158644 92.10024533 -118.6875 90.765625 C-118.6875 92.415625 -118.6875 94.065625 -118.6875 95.765625 C-117.6975 95.765625 -116.7075 95.765625 -115.6875 95.765625 C-116.491875 94.404375 -116.491875 94.404375 -117.3125 93.015625 C-118.6875 89.765625 -118.6875 89.765625 -118.0234375 87.70703125 C-116.45531609 85.42821153 -115.1705039 84.63529046 -112.6875 83.453125 C-111.98625 83.10636719 -111.285 82.75960937 -110.5625 82.40234375 C-109.94375 82.19222656 -109.325 81.98210937 -108.6875 81.765625 C-107.6975 82.260625 -107.6975 82.260625 -106.6875 82.765625 C-107.19925781 83.16394531 -107.71101563 83.56226563 -108.23828125 83.97265625 C-109.94944505 85.67593136 -109.94944505 85.67593136 -109.54296875 88.02734375 C-109.32253906 88.82785156 -109.10210937 89.62835938 -108.875 90.453125 C-108.2871875 92.5878125 -108.2871875 92.5878125 -107.6875 94.765625 C-102.4075 94.765625 -97.1275 94.765625 -91.6875 94.765625 C-91.3575 95.755625 -91.0275 96.745625 -90.6875 97.765625 C-87.7175 98.260625 -87.7175 98.260625 -84.6875 98.765625 C-84.378125 98.146875 -84.06875 97.528125 -83.75 96.890625 C-83.0625 95.515625 -82.375 94.140625 -81.6875 92.765625 C-81.3575 93.095625 -81.0275 93.425625 -80.6875 93.765625 C-77.92563694 93.89305001 -75.19986551 93.95084205 -72.4375 93.953125 C-71.67308594 93.96537109 -70.90867187 93.97761719 -70.12109375 93.99023438 C-65.79349549 94.00144577 -62.67610161 93.60707793 -58.6875 91.765625 C-57.6975 91.765625 -56.7075 91.765625 -55.6875 91.765625 C-55.6875 92.425625 -55.6875 93.085625 -55.6875 93.765625 C-56.0175 94.095625 -56.3475 94.425625 -56.6875 94.765625 C-54.7075 94.435625 -52.7275 94.105625 -50.6875 93.765625 C-50.1925 92.280625 -50.1925 92.280625 -49.6875 90.765625 C-46.36658998 89.06029283 -44.50257216 88.765625 -40.6875 88.765625 C-40.1925 87.280625 -40.1925 87.280625 -39.6875 85.765625 C-39.6875 86.425625 -39.6875 87.085625 -39.6875 87.765625 C-37.7075 87.435625 -35.7275 87.105625 -33.6875 86.765625 C-34.6775 87.260625 -34.6775 87.260625 -35.6875 87.765625 C-35.6875 89.085625 -35.6875 90.405625 -35.6875 91.765625 C-35.0275 91.765625 -34.3675 91.765625 -33.6875 91.765625 C-33.3575 89.785625 -33.0275 87.805625 -32.6875 85.765625 C-31.0375 85.435625 -29.3875 85.105625 -27.6875 84.765625 C-27.6875 84.105625 -27.6875 83.445625 -27.6875 82.765625 C-28.70070313 82.97058594 -29.71390625 83.17554688 -30.7578125 83.38671875 C-32.1093645 83.65890631 -33.46092759 83.93103879 -34.8125 84.203125 C-35.47765625 84.33783203 -36.1428125 84.47253906 -36.828125 84.61132812 C-40.77096807 85.40376227 -44.71662121 86.12855255 -48.6875 86.765625 C-40.31075023 79.34266357 -24.3737001 80.17285207 -13.6875 79.765625 C-14.3475 78.445625 -15.0075 77.125625 -15.6875 75.765625 C-23.31485257 75.73993819 -30.9421937 75.72261935 -38.56958008 75.71069336 C-41.15584734 75.70571328 -43.74211186 75.6989268 -46.32836914 75.69018555 C-64.45429722 75.61469911 -64.45429722 75.61469911 -82.5703125 76.13671875 C-83.3051033 76.16628159 -84.0398941 76.19584442 -84.79695129 76.2263031 C-90.42152546 76.53934818 -95.33863438 77.90984515 -100.53515625 80.0234375 C-101.24542969 80.26835937 -101.95570313 80.51328125 -102.6875 80.765625 C-103.6775 80.270625 -103.6775 80.270625 -104.6875 79.765625 C-104.66776781 74.93085166 -104.61513316 70.0978206 -104.53491211 65.26367188 C-104.51203908 63.62705028 -104.49741031 61.99028791 -104.49194336 60.35351562 C-104.40795929 39.31873615 -98.46002178 21.74747196 -83.51171875 6.4609375 C-60.91457066 -15.1048055 -25.5978111 -17.94968461 0 0 Z " fill="#FDFDFD" transform="translate(287.6875,161.234375)"/>
<path d="M0 0 C0.763125 0.58265625 1.52625 1.1653125 2.3125 1.765625 C3.01375 2.28640625 3.715 2.8071875 4.4375 3.34375 C17.42296924 13.79299478 25.5750844 29.49039296 28.3125 45.765625 C28.83740125 52.62828954 28.66311487 59.52951604 28.60546875 66.40625 C28.599863 68.38449784 28.59559753 70.36274989 28.59260559 72.34100342 C28.58123389 77.50966191 28.55183402 82.67806142 28.51849365 87.84661865 C28.48762599 93.1359914 28.4740648 98.4254066 28.45898438 103.71484375 C28.42695595 114.06521701 28.37585407 124.41539934 28.3125 134.765625 C28.95457901 134.76300659 29.59665802 134.76038818 30.25819397 134.75769043 C33.22551214 134.74716466 36.19282637 134.74075072 39.16015625 134.734375 C40.1696936 134.73018555 41.17923096 134.72599609 42.21936035 134.72167969 C51.27858306 134.70714132 60.27790548 135.13399292 69.3125 135.765625 C69.3125 136.425625 69.3125 137.085625 69.3125 137.765625 C-1.3075 137.765625 -71.9275 137.765625 -144.6875 137.765625 C-144.6875 137.105625 -144.6875 136.445625 -144.6875 135.765625 C-135.7775 135.435625 -126.8675 135.105625 -117.6875 134.765625 C-121.9683333 130.03553919 -121.9683333 130.03553919 -124.96484375 128.484375 C-127.34334353 126.11126864 -127.23684945 123.91052969 -127.29296875 120.65771484 C-127.27878906 119.8683252 -127.26460937 119.07893555 -127.25 118.265625 C-127.24484375 117.46205566 -127.2396875 116.65848633 -127.234375 115.83056641 C-127.02624099 109.01006977 -125.28778824 103.60323522 -121.6875 97.765625 C-120.6975 99.085625 -119.7075 100.405625 -118.6875 101.765625 C-119.0175 102.425625 -119.3475 103.085625 -119.6875 103.765625 C-120.3475 103.435625 -121.0075 103.105625 -121.6875 102.765625 C-122.3475 104.745625 -123.0075 106.725625 -123.6875 108.765625 C-122.0375 109.425625 -120.3875 110.085625 -118.6875 110.765625 C-118.66060784 112.24469392 -118.64115379 113.72389983 -118.625 115.203125 C-118.61339844 116.02683594 -118.60179687 116.85054687 -118.58984375 117.69921875 C-118.6875 119.765625 -118.6875 119.765625 -119.6875 120.765625 C-118.2025 121.755625 -118.2025 121.755625 -116.6875 122.765625 C-119.3275 122.765625 -121.9675 122.765625 -124.6875 122.765625 C-124.6875 123.755625 -124.6875 124.745625 -124.6875 125.765625 C-122.28204362 126.96835319 -120.73753047 126.86633972 -118.0625 126.828125 C-116.83660156 126.81458984 -116.83660156 126.81458984 -115.5859375 126.80078125 C-114.95945313 126.78917969 -114.33296875 126.77757812 -113.6875 126.765625 C-113.6875 126.105625 -113.6875 125.445625 -113.6875 124.765625 C-110.70868573 123.77268691 -108.77262761 123.64442715 -105.6652832 123.65209961 C-104.64445145 123.65217514 -103.62361969 123.65225067 -102.57185364 123.65232849 C-101.47177475 123.65748978 -100.37169586 123.66265106 -99.23828125 123.66796875 C-97.54665108 123.67009117 -97.54665108 123.67009117 -95.82084656 123.67225647 C-92.21387088 123.6778603 -88.60695696 123.69041347 -85 123.703125 C-82.55664152 123.70813951 -80.11328207 123.7127025 -77.66992188 123.71679688 C-71.67576013 123.72783097 -65.68163448 123.74457285 -59.6875 123.765625 C-59.6875 122.775625 -59.6875 121.785625 -59.6875 120.765625 C-58.36685547 120.78302734 -58.36685547 120.78302734 -57.01953125 120.80078125 C-55.85808594 120.80980469 -54.69664062 120.81882812 -53.5 120.828125 C-52.35144531 120.83972656 -51.20289063 120.85132813 -50.01953125 120.86328125 C-47.09449414 120.77755332 -44.52433709 120.44411523 -41.6875 119.765625 C-43.6675 119.435625 -45.6475 119.105625 -47.6875 118.765625 C-44.8125 113.890625 -44.8125 113.890625 -43.6875 112.765625 C-44.285625 112.930625 -44.88375 113.095625 -45.5 113.265625 C-47.6875 113.765625 -47.6875 113.765625 -50.6875 113.765625 C-50.1925 112.280625 -50.1925 112.280625 -49.6875 110.765625 C-47.79257994 110.42713848 -45.89651534 110.09505589 -44 109.765625 C-42.94425781 109.58 -41.88851562 109.394375 -40.80078125 109.203125 C-37.6875 108.765625 -37.6875 108.765625 -32.6875 108.765625 C-32.6875 113.385625 -32.6875 118.005625 -32.6875 122.765625 C-40.6075 123.095625 -48.5275 123.425625 -56.6875 123.765625 C-51.6263368 127.5614974 -49.01775429 127.89486099 -42.828125 127.86328125 C-41.71308594 127.86005859 -40.59804687 127.85683594 -39.44921875 127.85351562 C-38.29035156 127.84513672 -37.13148438 127.83675781 -35.9375 127.828125 C-34.76316406 127.82361328 -33.58882813 127.81910156 -32.37890625 127.81445312 C-29.48171928 127.80267594 -26.58463546 127.78622826 -23.6875 127.765625 C-23.57680176 127.07525146 -23.46610352 126.38487793 -23.35205078 125.67358398 C-22.84322288 122.51604475 -22.32791666 119.35959514 -21.8125 116.203125 C-21.63847656 115.11708984 -21.46445312 114.03105469 -21.28515625 112.91210938 C-18.86379717 98.15975498 -18.86379717 98.15975498 -16 94.765625 C-12.5321742 93.26602465 -10.29861172 93.81533244 -6.6875 94.765625 C-3.75 96.828125 -3.75 96.828125 -1.6875 98.765625 C-1.74756078 97.30614795 -1.8363689 95.84783228 -1.9375 94.390625 C-1.98390625 93.57851562 -2.0303125 92.76640625 -2.078125 91.9296875 C-2.4797092 89.57723573 -2.4797092 89.57723573 -4.734375 88.4765625 C-5.37890625 88.24195313 -6.0234375 88.00734375 -6.6875 87.765625 C-5.6975 87.435625 -4.7075 87.105625 -3.6875 86.765625 C-3.3575 85.775625 -3.0275 84.785625 -2.6875 83.765625 C-2.3575 85.085625 -2.0275 86.405625 -1.6875 87.765625 C-1.0169458 87.589104 -0.3463916 87.41258301 0.34448242 87.23071289 C3.3959268 86.42834001 6.44795527 85.62821111 9.5 84.828125 C10.55509766 84.55033203 11.61019531 84.27253906 12.69726562 83.98632812 C13.71884766 83.71884766 14.74042969 83.45136719 15.79296875 83.17578125 C16.73035889 82.92965088 17.66774902 82.68352051 18.63354492 82.42993164 C21.18258364 81.79784066 23.7333113 81.2585548 26.3125 80.765625 C26.3125 78.785625 26.3125 76.805625 26.3125 74.765625 C22.3525 75.425625 18.3925 76.085625 14.3125 76.765625 C14.6425 74.785625 14.9725 72.805625 15.3125 70.765625 C13.0025 70.765625 10.6925 70.765625 8.3125 70.765625 C8.3125 70.435625 8.3125 70.105625 8.3125 69.765625 C10.9525 69.765625 13.5925 69.765625 16.3125 69.765625 C16.3125 70.755625 16.3125 71.745625 16.3125 72.765625 C19.6125 71.775625 22.9125 70.785625 26.3125 69.765625 C25.32934135 63.83080493 25.32934135 63.83080493 21.6875 59.265625 C20.90375 58.770625 20.12 58.275625 19.3125 57.765625 C20.5190625 58.0440625 20.5190625 58.0440625 21.75 58.328125 C22.595625 58.4725 23.44125 58.616875 24.3125 58.765625 C24.6425 58.435625 24.9725 58.105625 25.3125 57.765625 C25.2245046 40.91450568 20.9699876 26.97288786 10.3125 13.765625 C9.57 12.755 8.8275 11.744375 8.0625 10.703125 C1.68916231 3.23721514 -7.87717474 -1.32656944 -16.6875 -5.234375 C-17.4403125 -5.57726562 -18.193125 -5.92015625 -18.96875 -6.2734375 C-31.15845631 -10.86603812 -48.80666252 -9.82882757 -60.5546875 -4.53125 C-67.70425036 -1.1645115 -74.85459902 2.35391818 -80.6875 7.765625 C-81.41066406 8.4359375 -82.13382813 9.10625 -82.87890625 9.796875 C-87.61033762 14.60035863 -91.01908891 19.67468597 -94.0625 25.640625 C-94.38412109 26.26372559 -94.70574219 26.88682617 -95.03710938 27.52880859 C-100.50758496 38.87744319 -101.09564039 50.16531407 -100.875 62.515625 C-100.85990967 64.00259045 -100.84622904 65.4895709 -100.83398438 66.9765625 C-100.80136039 70.57323514 -100.7498247 74.16932973 -100.6875 77.765625 C-99.6975 78.095625 -98.7075 78.425625 -97.6875 78.765625 C-101.1525 79.755625 -101.1525 79.755625 -104.6875 80.765625 C-104.66778002 75.78845764 -104.6151792 70.81298561 -104.53491211 65.83642578 C-104.51202767 64.15129894 -104.4974075 62.46603508 -104.49194336 60.78076172 C-104.40968644 39.55847634 -98.61580164 21.9067766 -83.51171875 6.4609375 C-60.91457066 -15.1048055 -25.5978111 -17.94968461 0 0 Z " fill="#080808" transform="translate(287.6875,161.234375)"/>
<path d="M0 0 C0.66 0.33 1.32 0.66 2 1 C1.23236328 1.59748047 1.23236328 1.59748047 0.44921875 2.20703125 C-1.26194505 3.91030636 -1.26194505 3.91030636 -0.85546875 6.26171875 C-0.63503906 7.06222656 -0.41460937 7.86273438 -0.1875 8.6875 C0.204375 10.110625 0.59625 11.53375 1 13 C6.28 13 11.56 13 17 13 C17.495 14.485 17.495 14.485 18 16 C19.98 16.33 21.96 16.66 24 17 C24.309375 16.38125 24.61875 15.7625 24.9375 15.125 C25.625 13.75 26.3125 12.375 27 11 C27.495 11.495 27.495 11.495 28 12 C30.76186306 12.12742501 33.48763449 12.18521705 36.25 12.1875 C37.39662109 12.20586914 37.39662109 12.20586914 38.56640625 12.22460938 C42.89400451 12.23582077 46.01139839 11.84145293 50 10 C50.99 10 51.98 10 53 10 C53 10.66 53 11.32 53 12 C52.67 12.33 52.34 12.66 52 13 C54.97 12.505 54.97 12.505 58 12 C58.33 11.01 58.66 10.02 59 9 C62.32091002 7.29466783 64.18492784 7 68 7 C68.33 6.01 68.66 5.02 69 4 C69 4.66 69 5.32 69 6 C71.97 5.505 71.97 5.505 75 5 C74.34 5.33 73.68 5.66 73 6 C73 7.32 73 8.64 73 10 C73.66 10 74.32 10 75 10 C75.33 8.02 75.66 6.04 76 4 C78.475 3.505 78.475 3.505 81 3 C80.01 4.98 79.02 6.96 78 9 C78.7425 9.28875 79.485 9.5775 80.25 9.875 C82.56739797 10.82302644 84.77917115 11.84845911 87 13 C87.66 12.34 88.32 11.68 89 11 C93.01858853 8.32094098 95.25305716 8.67817337 100 9 C100 9.33 100 9.66 100 10 C99.39671875 10.08636719 98.7934375 10.17273438 98.171875 10.26171875 C92.9032697 11.14156352 92.9032697 11.14156352 88.75 14.3125 C87.88375 15.6428125 87.88375 15.6428125 87 17 C83.36543839 21.21503606 79.93694372 23.1760241 74.6875 24.75 C74.02613037 24.95971436 73.36476074 25.16942871 72.68334961 25.38549805 C68.10787422 26.79078651 63.76780556 27.70809354 59 28 C59.495 29.485 59.495 29.485 60 31 C60.99 30.505 60.99 30.505 62 30 C64.125 30.4375 64.125 30.4375 66 31 C64.68 32.65 63.36 34.3 62 36 C64.64 36.66 67.28 37.32 70 38 C70 38.33 70 38.66 70 39 C53.86956522 41.43478261 53.86956522 41.43478261 49 39 C49.495 40.98 49.495 40.98 50 43 C31.85 43 13.7 43 -5 43 C-5 43.66 -5 44.32 -5 45 C-8.01868434 46.50934217 -10.67297229 46.17510672 -14 46 C-14.99 45.34 -15.98 44.68 -17 44 C-16.67 42.68 -16.34 41.36 -16 40 C-14.35 40 -12.7 40 -11 40 C-11.33 39.34 -11.66 38.68 -12 38 C-11.34 38 -10.68 38 -10 38 C-10.33 35.03 -10.66 32.06 -11 29 C-12.65 28.67 -14.3 28.34 -16 28 C-15.49581669 24.26904354 -14.84631029 22.47505242 -12 20 C-12 19.67 -12 19.34 -12 19 C-11.83841424 17.3120059 -11.67084377 15.62458223 -11.5 13.9375 C-11.4071875 13.01839844 -11.314375 12.09929687 -11.21875 11.15234375 C-11.11046875 10.08693359 -11.11046875 10.08693359 -11 9 C-10.67 9 -10.34 9 -10 9 C-10 10.65 -10 12.3 -10 14 C-9.01 14 -8.02 14 -7 14 C-7.53625 13.0925 -8.0725 12.185 -8.625 11.25 C-10 8 -10 8 -9.3359375 5.94140625 C-7.76781609 3.66258653 -6.4830039 2.86966546 -4 1.6875 C-3.29875 1.34074219 -2.5975 0.99398437 -1.875 0.63671875 C-1.25625 0.42660156 -0.6375 0.21648437 0 0 Z " fill="#EBEBEB" transform="translate(179,243)"/>
<path d="M0 0 C0.99821777 -0.01764404 1.99643555 -0.03528809 3.02490234 -0.0534668 C10.29060863 -0.04680323 16.78648864 1.28109155 23.75 3.3125 C23.75 3.6425 23.75 3.9725 23.75 4.3125 C12.86 3.8175 12.86 3.8175 1.75 3.3125 C3.4 3.6425 5.05 3.9725 6.75 4.3125 C3.78 11.5725 0.81 18.8325 -2.25 26.3125 C-0.93 25.9825 0.39 25.6525 1.75 25.3125 C3.54271391 21.82452512 3.54271391 21.82452512 4.75 18.3125 C6.75 21.3125 6.75 21.3125 7.75 23.3125 C10.77934491 23.97022428 10.77934491 23.97022428 13.75 24.3125 C12.76 25.9625 11.77 27.6125 10.75 29.3125 C13.83084955 30.16909135 16.81792001 30.58191369 20 30.875 C20.89203125 30.95878906 21.7840625 31.04257813 22.703125 31.12890625 C23.37859375 31.18949219 24.0540625 31.25007813 24.75 31.3125 C24.75 31.6425 24.75 31.9725 24.75 32.3125 C23.14125 32.4671875 23.14125 32.4671875 21.5 32.625 C17.79454099 33.30433415 16.55155724 34.01122084 13.75 36.3125 C12.76 36.3125 11.77 36.3125 10.75 36.3125 C10.75 35.3225 10.75 34.3325 10.75 33.3125 C7.89509764 33.42730031 5.0415412 33.55402964 2.1875 33.6875 C0.98770508 33.73390625 0.98770508 33.73390625 -0.23632812 33.78125 C-5.92593183 34.05992447 -11.08531471 34.73015736 -16.25 37.3125 C-16.25 36.6525 -16.25 35.9925 -16.25 35.3125 C-17.26320313 35.51746094 -18.27640625 35.72242188 -19.3203125 35.93359375 C-20.6718645 36.20578131 -22.02342759 36.47791379 -23.375 36.75 C-24.04015625 36.88470703 -24.7053125 37.01941406 -25.390625 37.15820312 C-29.33346807 37.95063727 -33.27912121 38.67542755 -37.25 39.3125 C-28.87325023 31.88953857 -12.9362001 32.71972707 -2.25 32.3125 C-3.24 30.3325 -3.24 30.3325 -4.25 28.3125 C-11.87735257 28.28681319 -19.5046937 28.26949435 -27.13208008 28.25756836 C-29.71834734 28.25258828 -32.30461186 28.2458018 -34.89086914 28.23706055 C-60.64591842 27.93003221 -60.64591842 27.93003221 -86.25 30.3125 C-84.25 28.3125 -84.25 28.3125 -81.046875 27.04296875 C-76.82976788 25.30183119 -73.84605381 22.66941893 -70.5 19.625 C-69.26634281 18.54716288 -68.0306473 17.4716545 -66.79296875 16.3984375 C-64.67028303 14.54981144 -62.54796333 12.7007668 -60.42578125 10.8515625 C-53.2159991 5.05356131 -46.32367532 3.32959126 -37.25 2.3125 C-36.38713379 2.21243652 -35.52426758 2.11237305 -34.63525391 2.00927734 C-23.11471358 0.73501448 -11.58892277 0.11440459 0 0 Z " fill="#050505" transform="translate(276.25,208.6875)"/>
<path d="M0 0 C4.958075 -0.05032793 9.91599375 -0.08614629 14.87426758 -0.10986328 C16.55267941 -0.11977485 18.2310747 -0.13330804 19.90942383 -0.15087891 C28.78858533 -0.24134684 37.5497109 -0.12949906 46.37890625 0.89453125 C47.06802597 0.97408051 47.75714569 1.05362976 48.46714783 1.1355896 C53.61604276 1.80202962 58.82448409 2.73268649 63 6 C64.0625 8.75 64.0625 8.75 64 11 C63.01 10.67 62.02 10.34 61 10 C61.495 10.53625 61.99 11.0725 62.5 11.625 C64.37489544 14.59358445 64.23501425 16.55312427 64 20 C62.70990357 20.50403768 61.41786211 21.00309926 60.125 21.5 C59.04605469 21.91765625 59.04605469 21.91765625 57.9453125 22.34375 C56 23 56 23 54 23 C54 22.01 54 21.02 54 20 C53.505 22.475 53.505 22.475 53 25 C53.99 25 54.98 25 56 25 C58.66666667 25 61.33333333 25 64 25 C64 26.98 64 28.96 64 31 C61.02546588 31.99362773 58.04469185 32.96712186 55.0625 33.9375 C54.23169922 34.21529297 53.40089844 34.49308594 52.54492188 34.77929688 C46.77410144 36.64302488 41.11737507 38 35 38 C35.33 38.66 35.66 39.32 36 40 C36.06950541 41.54023996 36.08452357 43.08334988 36.0625 44.625 C36.05347656 45.44226563 36.04445313 46.25953125 36.03515625 47.1015625 C36.02355469 47.72804688 36.01195312 48.35453125 36 49 C33.50638429 47.79618552 31.31856917 46.54571278 29 45 C25.85516188 44.51617875 24.48816823 44.67920373 21.8125 46.4375 C17.10475789 53.09327332 17.15439332 63.33836809 16.05664062 71.2421875 C15.93353516 72.10070312 15.81042969 72.95921875 15.68359375 73.84375 C15.57587646 74.61912109 15.46815918 75.39449219 15.35717773 76.19335938 C15 78 15 78 14 79 C9.96565812 79.28296128 5.91806869 79.23191021 1.875 79.25 C0.18117187 79.2809375 0.18117187 79.2809375 -1.546875 79.3125 C-7.78091719 79.34169926 -12.57599431 79.21533856 -18 76 C-18.66 75.01 -19.32 74.02 -20 73 C-11.75 73 -3.5 73 5 73 C5 68.38 5 63.76 5 59 C2.1846875 59.495 2.1846875 59.495 -0.6875 60 C-4.52027417 60.67389436 -8.10672105 61.11557043 -12 61 C-7.62947882 58.54299716 -2.79956131 57.34898974 1.98046875 55.94335938 C9.3135484 53.72686355 13.90211205 51.78271109 18 45 C19.75 43.125 19.75 43.125 21 42 C19.35 43.32 17.7 44.64 16 46 C12.88801935 44.50163895 9.9465385 42.80066242 7 41 C8.36948009 36.51806515 10.05783982 34.52463801 14 32 C16.95693713 31.25001815 19.90125621 30.98794237 22.9375 30.75 C23.72318359 30.67265625 24.50886719 30.5953125 25.31835938 30.515625 C29.55766728 30.11830074 33.73836562 29.91791394 38 30 C37.67 31.32 37.34 32.64 37 34 C40.465 32.02 40.465 32.02 44 30 C43.21625 29.9175 42.4325 29.835 41.625 29.75 C39 29 39 29 37.6875 26.9375 C37.460625 26.298125 37.23375 25.65875 37 25 C37.66 24.34 38.32 23.68 39 23 C38.05125 22.731875 37.1025 22.46375 36.125 22.1875 C33 21 33 21 31 18 C30.01 19.98 29.02 21.96 28 24 C26.68 24 25.36 24 24 24 C26.27435204 16.81783567 29.03584181 9.9241798 32 3 C28.48575476 1.94044752 25.14344126 1.80001859 21.484375 1.68359375 C20.23398437 1.64169922 18.98359375 1.59980469 17.6953125 1.55664062 C16.39335937 1.51732422 15.09140625 1.47800781 13.75 1.4375 C12.43257813 1.39431641 11.11515625 1.35113281 9.7578125 1.30664062 C6.50531212 1.20058083 3.25273608 1.09851976 0 1 C0 0.67 0 0.34 0 0 Z " fill="#FCFCFC" transform="translate(250,211)"/>
<path d="M0 0 C0 0.99 0 1.98 0 3 C-1.65 3.33 -3.3 3.66 -5 4 C-5 4.99 -5 5.98 -5 7 C-3.35 7 -1.7 7 0 7 C0.09908936 16.39146903 0.12998844 25.65741704 -1 35 C0.32 35 1.64 35 3 35 C3 36.98 3 38.96 3 41 C-5.35104207 41.68271293 -13.61988971 42.15392039 -22 42 C-21.49919922 40.92878906 -21.49919922 40.92878906 -20.98828125 39.8359375 C-19.02378702 34.19869319 -20.05429407 28.00489657 -22.5625 22.6875 C-24.80878995 16.92527794 -24.22894551 11.11369294 -24 5 C-20.940229 4.15642037 -17.8767954 3.3269798 -14.8125 2.5 C-13.94818359 2.26152344 -13.08386719 2.02304688 -12.19335938 1.77734375 C-11.35224609 1.55175781 -10.51113281 1.32617188 -9.64453125 1.09375 C-8.87471924 0.88427734 -8.10490723 0.67480469 -7.31176758 0.45898438 C-4.82176477 -0.03538729 -2.53218501 -0.07833519 0 0 Z " fill="#FBFBFB" transform="translate(311,245)"/>
<path d="M0 0 C3.09866202 6.62615673 4.47266289 11.67372525 4 19 C1.50638429 17.79618552 -0.68143083 16.54571278 -3 15 C-6.14483812 14.51617875 -7.51183177 14.67920373 -10.1875 16.4375 C-14.89524211 23.09327332 -14.84560668 33.33836809 -15.94335938 41.2421875 C-16.06646484 42.10070312 -16.18957031 42.95921875 -16.31640625 43.84375 C-16.42412354 44.61912109 -16.53184082 45.39449219 -16.64282227 46.19335938 C-17 48 -17 48 -18 49 C-22.03434188 49.28296128 -26.08193131 49.23191021 -30.125 49.25 C-31.25421875 49.270625 -32.3834375 49.29125 -33.546875 49.3125 C-39.78091719 49.34169926 -44.57599431 49.21533856 -50 46 C-50.66 45.01 -51.32 44.02 -52 43 C-43.75 43 -35.5 43 -27 43 C-27 38.38 -27 33.76 -27 29 C-28.876875 29.33 -30.75375 29.66 -32.6875 30 C-36.52027417 30.67389436 -40.10672105 31.11557043 -44 31 C-39.62947882 28.54299716 -34.79956131 27.34898974 -30.01953125 25.94335938 C-22.6864516 23.72686355 -18.09788795 21.78271109 -14 15 C-12.25 13.125 -12.25 13.125 -11 12 C-12.65 13.32 -14.3 14.64 -16 16 C-19.11198065 14.50163895 -22.0534615 12.80066242 -25 11 C-23.63319926 6.52683395 -21.89464896 4.56489702 -18 2 C-14.3359375 1.171875 -14.3359375 1.171875 -10.375 0.75 C-9.70726562 0.67265625 -9.03953125 0.5953125 -8.3515625 0.515625 C-5.5522531 0.20210235 -2.8182096 0 0 0 Z " fill="#F7F7F7" transform="translate(282,241)"/>
<path d="M0 0 C0 12.54 0 25.08 0 38 C-2.95664519 39.4783226 -5.74229737 39.06032783 -9 39 C-9 38.67 -9 38.34 -9 38 C-7.35 38 -5.7 38 -4 38 C-4.01160156 37.40316406 -4.02320313 36.80632812 -4.03515625 36.19140625 C-4.12626556 27.43189687 -3.57349881 18.73561575 -3 10 C-4.65 10.33 -6.3 10.66 -8 11 C-8.5625 9.0625 -8.5625 9.0625 -9 7 C-8 6 -8 6 -5.4375 5.9375 C-4.2309375 5.9684375 -4.2309375 5.9684375 -3 6 C-3 5.01 -3 4.02 -3 3 C-3.54938232 3.15146484 -4.09876465 3.30292969 -4.66479492 3.45898438 C-7.17062036 4.14587379 -9.67898246 4.82301131 -12.1875 5.5 C-13.05181641 5.73847656 -13.91613281 5.97695312 -14.80664062 6.22265625 C-15.64775391 6.44824219 -16.48886719 6.67382812 -17.35546875 6.90625 C-18.12528076 7.11572266 -18.89509277 7.32519531 -19.68823242 7.54101562 C-22.17823523 8.03538729 -24.46781499 8.07833519 -27 8 C-26.94470004 17.17825096 -26.94470004 17.17825096 -24.5 25.875 C-22.27296699 30.5146521 -21.33269054 34.99807161 -23 40 C-21.02 40 -19.04 40 -17 40 C-17 40.33 -17 40.66 -17 41 C-17.94875 41.12375 -18.8975 41.2475 -19.875 41.375 C-23.08667191 41.71687177 -23.08667191 41.71687177 -25 44 C-25.495 43.505 -25.495 43.505 -26 43 C-26.5775 43.928125 -27.155 44.85625 -27.75 45.8125 C-31.13317191 50.60532688 -31.13317191 50.60532688 -34 52 C-38.28978511 52.5709141 -41.77485759 52.71715653 -45.5625 50.5 C-46.036875 50.005 -46.51125 49.51 -47 49 C-46.67 48.01 -46.34 47.02 -46 46 C-45.484375 46.495 -44.96875 46.99 -44.4375 47.5 C-41.03618625 49.59311615 -38.92927257 49.55147685 -35 49 C-31.03000147 46.26511212 -29.72463985 43.75379629 -28.6875 39.1875 C-28.43986283 37.79482492 -28.20431167 36.39968739 -28 35 C-28.94875 35.495 -29.8975 35.99 -30.875 36.5 C-34 38 -34 38 -36 38 C-35.67 40.97 -35.34 43.94 -35 47 C-36.32 45.35 -37.64 43.7 -39 42 C-39.33 43.98 -39.66 45.96 -40 48 C-40.33 48 -40.66 48 -41 48 C-41 44.7 -41 41.4 -41 38 C-42.98 37.34 -44.96 36.68 -47 36 C-44 35 -44 35 -42 35 C-42.99 33.700625 -42.99 33.700625 -44 32.375 C-46.87429958 27.52461946 -46.34739074 24.70800448 -45.25 19.3125 C-44 16 -44 16 -42.3125 14 C-38.8446742 12.50039965 -36.61111172 13.04970744 -33 14 C-30.0625 16.0625 -30.0625 16.0625 -28 18 C-28.06006078 16.54052295 -28.1488689 15.08220728 -28.25 13.625 C-28.29640625 12.81289062 -28.3428125 12.00078125 -28.390625 11.1640625 C-28.7922092 8.81161073 -28.7922092 8.81161073 -31.046875 7.7109375 C-31.69140625 7.47632813 -32.3359375 7.24171875 -33 7 C-32.01 6.67 -31.02 6.34 -30 6 C-29.67 5.01 -29.34 4.02 -29 3 C-28.67 4.32 -28.34 5.64 -28 7 C-24.22873374 6.02249564 -20.45806336 5.04271189 -16.6875 4.0625 C-15.0797168 3.64581055 -15.0797168 3.64581055 -13.43945312 3.22070312 C-12.41142578 2.95322266 -11.38339844 2.68574219 -10.32421875 2.41015625 C-9.37635498 2.16402588 -8.42849121 1.91789551 -7.4519043 1.66430664 C-1.30907755 0 -1.30907755 0 0 0 Z " fill="#8A8A8A" transform="translate(314,242)"/>
<path d="M0 0 C6.93 0 13.86 0 21 0 C21 1.98 21 3.96 21 6 C30.9 5.505 30.9 5.505 41 5 C35.375 13.875 35.375 13.875 32 15 C26.32152345 15.27846036 20.64316006 15.31346073 14.95849609 15.35009766 C13.07295397 15.36666885 11.18747497 15.3939743 9.30224609 15.43212891 C6.57877136 15.48693198 3.85676451 15.50877386 1.1328125 15.5234375 C0.29307892 15.54610687 -0.54665466 15.56877625 -1.41183472 15.59213257 C-5.69731435 15.57668714 -7.45513613 15.42221757 -10.94580078 12.71728516 C-13 10 -13 10 -15 6 C-10.05 6.33 -5.1 6.66 0 7 C0 4.69 0 2.38 0 0 Z " fill="#080808" transform="translate(188,264)"/>
<path d="M0 0 C0.66 0.33 1.32 0.66 2 1 C-1.85330691 8.07195151 -5.26516885 11.62308245 -13 14 C-13.70769531 14.22300781 -14.41539062 14.44601562 -15.14453125 14.67578125 C-19.69451412 15.95464833 -24.6118557 17.19407215 -29 15 C-30.8863912 14.915085 -32.77578515 14.892807 -34.6640625 14.90234375 C-36.34628906 14.90717773 -36.34628906 14.90717773 -38.0625 14.91210938 C-39.8259375 14.92467773 -39.8259375 14.92467773 -41.625 14.9375 C-42.80835938 14.94201172 -43.99171875 14.94652344 -45.2109375 14.95117188 C-48.14067507 14.96298533 -51.07031272 14.97945742 -54 15 C-54.33 14.34 -54.66 13.68 -55 13 C-54.34 12.67 -53.68 12.34 -53 12 C-52.34786708 9.97536745 -52.34786708 9.97536745 -52 8 C-51.67 8.33 -51.34 8.66 -51 9 C-48.23813694 9.12742501 -45.51236551 9.18521705 -42.75 9.1875 C-41.60337891 9.20586914 -41.60337891 9.20586914 -40.43359375 9.22460938 C-36.10599549 9.23582077 -32.98860161 8.84145293 -29 7 C-28.01 7 -27.02 7 -26 7 C-26 7.66 -26 8.32 -26 9 C-26.33 9.33 -26.66 9.66 -27 10 C-25.02 9.67 -23.04 9.34 -21 9 C-20.67 8.01 -20.34 7.02 -20 6 C-16.67908998 4.29466783 -14.81507216 4 -11 4 C-10.67 3.01 -10.34 2.02 -10 1 C-10 1.66 -10 2.32 -10 3 C-8.02 2.67 -6.04 2.34 -4 2 C-4.66 2.33 -5.32 2.66 -6 3 C-6 4.32 -6 5.64 -6 7 C-5.34 7 -4.68 7 -4 7 C-3.67 5.02 -3.34 3.04 -3 1 C-2.01 0.67 -1.02 0.34 0 0 Z " fill="#1A1A1A" transform="translate(258,246)"/>
<path d="M0 0 C3.125 -0.4375 3.125 -0.4375 7 0 C11.68652809 3.55456758 14.16287402 8.23313213 15 14 C15.06357305 21.25640987 15.06492948 27.5009337 10 33 C9.443125 33.61875 8.88625 34.2375 8.3125 34.875 C4.6404062 36.66142401 1.00270227 36.57286381 -3 36 C-5.5625 34.5 -5.5625 34.5 -7 33 C-6.67 32.01 -6.34 31.02 -6 30 C-5.484375 30.495 -4.96875 30.99 -4.4375 31.5 C-1.03618625 33.59311615 1.07072743 33.55147685 5 33 C8.96999853 30.26511212 10.27536015 27.75379629 11.3125 23.1875 C11.56013717 21.79482492 11.79568833 20.39968739 12 19 C11.05125 19.495 10.1025 19.99 9.125 20.5 C6 22 6 22 4 22 C4.33 24.97 4.66 27.94 5 31 C3.68 29.35 2.36 27.7 1 26 C0.67 27.98 0.34 29.96 0 32 C-0.33 32 -0.66 32 -1 32 C-1 28.7 -1 25.4 -1 22 C-2.98 21.34 -4.96 20.68 -7 20 C-4 19 -4 19 -2 19 C-3.32 17.02 -4.64 15.04 -6 13 C-5.67 12.34 -5.34 11.68 -5 11 C-3.35 12.65 -1.7 14.3 0 16 C4.41889613 14.64978174 6.34345343 12.73884332 9 9 C7.30820672 6.95780294 6.36272334 6.08206694 3.73828125 5.48828125 C2.93777344 5.43027344 2.13726562 5.37226563 1.3125 5.3125 C0.50425781 5.24675781 -0.30398438 5.18101562 -1.13671875 5.11328125 C-1.75160156 5.07589844 -2.36648438 5.03851563 -3 5 C-3 4.34 -3 3.68 -3 3 C-2.34 3 -1.68 3 -1 3 C-0.67 2.01 -0.34 1.02 0 0 Z " fill="#D9D9D9" transform="translate(274,258)"/>
<path d="M0 0 C12.35047604 -0.49401904 12.35047604 -0.49401904 15.3984375 1.82421875 C17.53382899 4.72522621 17.45011641 6.47408813 17 10 C16.01 11.485 16.01 11.485 15 13 C15.35515029 15.84120234 16.09349251 18.28047752 17 21 C14.75 21.375 14.75 21.375 12 21 C9.875 18.0625 9.875 18.0625 8 15 C7.01 14.67 6.02 14.34 5 14 C5 16.31 5 18.62 5 21 C3.35 21 1.7 21 0 21 C0 14.07 0 7.14 0 0 Z " fill="#101010" transform="translate(263,318)"/>
<path d="M0 0 C1.6376746 3.27534919 0.2980107 6.65368164 -0.375 10.125 C-1.43900993 15.74060798 -2.34322232 21.32080477 -3 27 C-6.18732254 27.08797281 -9.37432788 27.14071341 -12.5625 27.1875 C-13.45775391 27.21263672 -14.35300781 27.23777344 -15.27539062 27.26367188 C-20.98016874 27.32636174 -24.99488131 26.82154523 -30 24 C-30.66 23.01 -31.32 22.02 -32 21 C-23.75 21 -15.5 21 -7 21 C-7 16.38 -7 11.76 -7 7 C-8.876875 7.33 -10.75375 7.66 -12.6875 8 C-16.52027417 8.67389436 -20.10672105 9.11557043 -24 9 C-19.57611379 6.51156401 -14.67674797 5.30011488 -9.84375 3.85546875 C-6.40659159 2.81021349 -3.1394654 1.76594929 0 0 Z " fill="#FAFAFA" transform="translate(262,263)"/>
<path d="M0 0 C4.958075 -0.05032793 9.91599375 -0.08614629 14.87426758 -0.10986328 C16.55267941 -0.11977485 18.2310747 -0.13330804 19.90942383 -0.15087891 C28.78858533 -0.24134684 37.5497109 -0.12949906 46.37890625 0.89453125 C47.41258583 1.01385513 47.41258583 1.01385513 48.46714783 1.1355896 C53.61604276 1.80202962 58.82448409 2.73268649 63 6 C64.0625 8.75 64.0625 8.75 64 11 C63.505 10.71125 63.01 10.4225 62.5 10.125 C59.08247965 8.58711584 55.6493798 7.85152195 52 7 C51.67 7.66 51.34 8.32 51 9 C50.505 8.01 50.505 8.01 50 7 C46.14083779 6.22816756 43.12559497 5.82092807 39.25 6.4375 C35.81200015 8.8249999 34.5781732 12.20885768 33 16 C32.34 16 31.68 16 31 16 C30.34 18.31 29.68 20.62 29 23 C27.35 23.33 25.7 23.66 24 24 C26.27435204 16.81783567 29.03584181 9.9241798 32 3 C28.48575476 1.94044752 25.14344126 1.80001859 21.484375 1.68359375 C20.23398437 1.64169922 18.98359375 1.59980469 17.6953125 1.55664062 C16.39335937 1.51732422 15.09140625 1.47800781 13.75 1.4375 C12.43257813 1.39431641 11.11515625 1.35113281 9.7578125 1.30664062 C6.50531212 1.20058083 3.25273608 1.09851976 0 1 C0 0.67 0 0.34 0 0 Z " fill="#D9D9D9" transform="translate(250,211)"/>
<path d="M0 0 C0 0.33 0 0.66 0 1 C-0.57331055 1.06469482 -1.14662109 1.12938965 -1.73730469 1.19604492 C-20.90579021 3.4354438 -40.16087571 8.24289292 -53 24 C-65.00326676 39.18674186 -68.52653395 54.77262786 -68.1875 73.75 C-68.17240967 75.23696545 -68.15872904 76.7239459 -68.14648438 78.2109375 C-68.11386039 81.80761014 -68.0623247 85.40370473 -68 89 C-67.01 89.33 -66.02 89.66 -65 90 C-68.465 90.99 -68.465 90.99 -72 92 C-71.98028002 87.02283264 -71.9276792 82.04736061 -71.84741211 77.07080078 C-71.82452767 75.38567394 -71.8099075 73.70041008 -71.80444336 72.01513672 C-71.72218644 50.79285134 -65.92830164 33.1411516 -50.82421875 17.6953125 C-36.45674208 3.98361277 -19.39051299 -0.71522384 0 0 Z " fill="#141414" transform="translate(255,150)"/>
<path d="M0 0 C0.66 0.33 1.32 0.66 2 1 C1.48824219 1.39832031 0.97648438 1.79664063 0.44921875 2.20703125 C-1.26194505 3.91030636 -1.26194505 3.91030636 -0.85546875 6.26171875 C-0.63503906 7.06222656 -0.41460937 7.86273438 -0.1875 8.6875 C0.204375 10.110625 0.59625 11.53375 1 13 C6.28 13 11.56 13 17 13 C17.33 13.99 17.66 14.98 18 16 C21.51190809 17.22969878 21.51190809 17.22969878 25 18 C23 20 23 20 20.125 20.25 C17 20 17 20 15.2734375 18.99609375 C11.98579926 17.5556337 9.06987688 17.77384976 5.5 17.8125 C3.53546875 17.82216797 3.53546875 17.82216797 1.53125 17.83203125 C-2.33103523 17.9924321 -2.33103523 17.9924321 -6 19 C-6.33 19.66 -6.66 20.32 -7 21 C-9.5625 18.9375 -9.5625 18.9375 -12 16 C-11.8125 12.1875 -11.8125 12.1875 -11 9 C-10.67 9 -10.34 9 -10 9 C-10 10.65 -10 12.3 -10 14 C-9.01 14 -8.02 14 -7 14 C-7.53625 13.0925 -8.0725 12.185 -8.625 11.25 C-10 8 -10 8 -9.3359375 5.94140625 C-7.76781609 3.66258653 -6.4830039 2.86966546 -4 1.6875 C-3.29875 1.34074219 -2.5975 0.99398437 -1.875 0.63671875 C-1.25625 0.42660156 -0.6375 0.21648437 0 0 Z " fill="#111111" transform="translate(179,243)"/>
<path d="M0 0 C2.74277578 3.19990508 4.6302836 6.00499382 6 10 C5.34 10 4.68 10 4 10 C4.66 10.33 5.32 10.66 6 11 C6.99 12.485 6.99 12.485 8 14 C8.98095748 15.01868662 9.97702078 16.02351983 11 17 C11 15.02 11 13.04 11 11 C16.75 8 16.75 8 19 8 C19.45675183 13.70939788 18.62105556 16.55127459 15 21 C11.28986601 23.47342266 9.38939738 23.38503486 5 23 C2.5625 21.5 2.5625 21.5 1 20 C0.34 20.33 -0.32 20.66 -1 21 C-2.43036196 18.13927609 -1.89282295 15.92044466 -1.625 12.75 C-1.53476562 11.63109375 -1.44453125 10.5121875 -1.3515625 9.359375 C-1.02182288 6.20852975 -0.55741891 3.11776677 0 0 Z " fill="#090909" transform="translate(267,269)"/>
<path d="M0 0 C1.46856445 -0.01740234 1.46856445 -0.01740234 2.96679688 -0.03515625 C3.90458984 -0.03128906 4.84238281 -0.02742188 5.80859375 -0.0234375 C6.65091553 -0.02005371 7.4932373 -0.01666992 8.36108398 -0.01318359 C11.00570797 0.45315245 11.89218471 1.32668562 13.5625 3.375 C13.2325 4.035 12.9025 4.695 12.5625 5.375 C10.5 6 10.5 6 8.5625 6.375 C8.8925 7.035 9.2225 7.695 9.5625 8.375 C9.2325 9.035 8.9025 9.695 8.5625 10.375 C2.6225 10.375 -3.3175 10.375 -9.4375 10.375 C-9.4375 8.395 -9.4375 6.415 -9.4375 4.375 C-13.3975 4.375 -17.3575 4.375 -21.4375 4.375 C-21.4375 4.045 -21.4375 3.715 -21.4375 3.375 C-14.1784146 0.76041899 -7.69146498 -0.09373485 0 0 Z " fill="#FCFCFC" transform="translate(218.4375,259.625)"/>
<path d="M0 0 C3.09851777 1.8074687 4.59108071 2.86760812 5.8125 6.25 C5.874375 6.8275 5.93625 7.405 6 8 C3.6875 8.1875 3.6875 8.1875 1 8 C0 7 -1 6 -2 5 C-4.54230847 4.58320703 -4.54230847 4.58320703 -7 5 C-9.37994368 6.94332332 -9.37994368 6.94332332 -9.25 10.5 C-9.37994368 14.05667668 -9.37994368 14.05667668 -7 16 C-3.43407381 15.83582968 -3.43407381 15.83582968 0 15 C0.33 14.34 0.66 13.68 1 13 C2.65 13 4.3 13 6 13 C5.1342843 15.66929007 4.27808762 17.67741836 2.4375 19.8125 C-1.33108188 21.64847579 -4.89183565 21.67370966 -9 21 C-12.49890004 18.88608123 -13.70578686 17.88263941 -15 14 C-15.57279236 6.8973747 -15.57279236 6.8973747 -13.125 3.0625 C-9.2033341 -0.74382279 -5.2554576 -0.66260519 0 0 Z " fill="#0A0A0A" transform="translate(250,318)"/>
<path d="M0 0 C3.09851777 1.8074687 4.59108071 2.86760812 5.8125 6.25 C5.874375 6.8275 5.93625 7.405 6 8 C3.6875 8.1875 3.6875 8.1875 1 8 C0 7 -1 6 -2 5 C-4.54230847 4.58320703 -4.54230847 4.58320703 -7 5 C-9.37994368 6.94332332 -9.37994368 6.94332332 -9.25 10.5 C-9.37994368 14.05667668 -9.37994368 14.05667668 -7 16 C-3.43407381 15.83582968 -3.43407381 15.83582968 0 15 C0.33 14.34 0.66 13.68 1 13 C2.65 13 4.3 13 6 13 C5.1342843 15.66929007 4.27808762 17.67741836 2.4375 19.8125 C-1.33108188 21.64847579 -4.89183565 21.67370966 -9 21 C-12.49890004 18.88608123 -13.70578686 17.88263941 -15 14 C-15.57279236 6.8973747 -15.57279236 6.8973747 -13.125 3.0625 C-9.2033341 -0.74382279 -5.2554576 -0.66260519 0 0 Z " fill="#0A0A0A" transform="translate(153,318)"/>
<path d="M0 0 C1.65 0 3.3 0 5 0 C5.33 4.95 5.66 9.9 6 15 C7.65 15.33 9.3 15.66 11 16 C12.99616554 14.00383446 12.40983427 10.18298037 12.5625 7.4375 C12.60568359 6.72658203 12.64886719 6.01566406 12.69335938 5.28320312 C12.79971777 3.52238088 12.90038846 1.7612168 13 0 C14.65 0 16.3 0 18 0 C18.08139142 2.39652528 18.14067009 4.79025436 18.1875 7.1875 C18.21263672 7.86103516 18.23777344 8.53457031 18.26367188 9.22851562 C18.32907182 13.69751197 17.75630065 16.45618488 15 20 C11.80766515 21.59616743 8.46538503 21.51466114 5 21 C2.56880377 19.12984906 1.35930827 17.71861655 0 15 C-0.0716735 12.44842345 -0.09308442 9.92527029 -0.0625 7.375 C-0.05798828 6.66859375 -0.05347656 5.9621875 -0.04882812 5.234375 C-0.03703875 3.48954725 -0.01910324 1.744763 0 0 Z " fill="#0E0E0E" transform="translate(287,318)"/>
<path d="M0 0 C2 3 2 3 3 5 C6.02934491 5.65772428 6.02934491 5.65772428 9 6 C8.01 7.65 7.02 9.3 6 11 C9.08084955 11.85659135 12.06792001 12.26941369 15.25 12.5625 C16.14203125 12.64628906 17.0340625 12.73007813 17.953125 12.81640625 C18.96632813 12.90728516 18.96632813 12.90728516 20 13 C20 13.33 20 13.66 20 14 C18.9275 14.103125 17.855 14.20625 16.75 14.3125 C13.04454099 14.99183415 11.80155724 15.69872084 9 18 C8.01 18 7.02 18 6 18 C6 17.01 6 16.02 6 15 C3.14509764 15.11480031 0.2915412 15.24152964 -2.5625 15.375 C-3.76229492 15.42140625 -3.76229492 15.42140625 -4.98632812 15.46875 C-10.67593183 15.74742447 -15.83531471 16.41765736 -21 19 C-21 18.34 -21 17.68 -21 17 C-22.01320313 17.20496094 -23.02640625 17.40992188 -24.0703125 17.62109375 C-25.4218645 17.89328131 -26.77342759 18.16541379 -28.125 18.4375 C-28.79015625 18.57220703 -29.4553125 18.70691406 -30.140625 18.84570312 C-34.08346807 19.63813727 -38.02912121 20.36292755 -42 21 C-33.62325023 13.57703857 -17.6862001 14.40722707 -7 14 C-7.66 12.02 -8.32 10.04 -9 8 C-7.6078125 7.9690625 -7.6078125 7.9690625 -6.1875 7.9375 C-2.99303786 7.37155641 -2.99303786 7.37155641 -1.93359375 5.375 C-1.20025229 3.61781467 -0.59224075 1.80962451 0 0 Z " fill="#B7B7B7" transform="translate(281,227)"/>
<path d="M0 0 C4.92959122 -0.04942899 9.85903825 -0.08573318 14.78881836 -0.10986328 C16.46592725 -0.11992237 18.14301861 -0.13357122 19.82006836 -0.15087891 C22.23035002 -0.17513152 24.64039986 -0.1864839 27.05078125 -0.1953125 C28.17592888 -0.21079636 28.17592888 -0.21079636 29.32380676 -0.22659302 C33.10300779 -0.227408 34.77414399 -0.15057067 38 2 C38 2.66 38 3.32 38 4 C27.605 4.495 27.605 4.495 17 5 C19.97 5.495 19.97 5.495 23 6 C23 6.33 23 6.66 23 7 C13.43 7.33 3.86 7.66 -6 8 C-5.67 7.34 -5.34 6.68 -5 6 C-4.34 6 -3.68 6 -3 6 C-2.690625 5.38125 -2.38125 4.7625 -2.0625 4.125 C-1.375 2.75 -0.6875 1.375 0 0 Z " fill="#E3E3E3" transform="translate(198,289)"/>
<path d="M0 0 C2.5 1.3125 2.5 1.3125 4 3 C4 3.99 4 4.98 4 6 C0.7 5.67 -2.6 5.34 -6 5 C-6 5.66 -6 6.32 -6 7 C-5.45730469 7.18175781 -4.91460937 7.36351562 -4.35546875 7.55078125 C-3.64003906 7.80214844 -2.92460937 8.05351562 -2.1875 8.3125 C-1.47980469 8.55613281 -0.77210938 8.79976563 -0.04296875 9.05078125 C2.20015782 10.09299876 3.48515478 11.04753283 5 13 C4.875 16.0625 4.875 16.0625 4 19 C-0.00708249 21.67138833 -3.28943445 21.70573455 -8 21 C-10.5625 19.1875 -10.5625 19.1875 -12 17 C-12 16.01 -12 15.02 -12 14 C-10.35 14 -8.7 14 -7 14 C-6.67 14.66 -6.34 15.32 -6 16 C-2.97065509 16.65772428 -2.97065509 16.65772428 0 17 C-0.66227606 13.88896984 -0.66227606 13.88896984 -3.03125 12.8671875 C-3.8459375 12.53976562 -4.660625 12.21234375 -5.5 11.875 C-9.93582888 10.06417112 -9.93582888 10.06417112 -11 9 C-11.26077823 6.00105039 -11.43731576 3.81996705 -10 1.125 C-6.79670637 -0.67685267 -3.53627477 -0.53364307 0 0 Z " fill="#111111" transform="translate(336,318)"/>
<path d="M0 0 C4.62 0 9.24 0 14 0 C14 1.32 14 2.64 14 4 C11.03 4 8.06 4 5 4 C5 5.32 5 6.64 5 8 C7.64 8 10.28 8 13 8 C13 9.32 13 10.64 13 12 C10.36 12 7.72 12 5 12 C5 13.65 5 15.3 5 17 C7.97 17 10.94 17 14 17 C14 18.32 14 19.64 14 21 C9.38 21 4.76 21 0 21 C0 14.07 0 7.14 0 0 Z " fill="#0A0A0A" transform="translate(348,318)"/>
<path d="M0 0 C0.91265625 0.67095703 0.91265625 0.67095703 1.84375 1.35546875 C13.20747794 10.1623579 21.50051746 24.63803649 23.83203125 38.765625 C24.07681241 42.02178363 23.69254572 44.81428971 23 48 C22.67 48 22.34 48 22 48 C21.85304688 46.91203125 21.70609375 45.8240625 21.5546875 44.703125 C19.61488999 31.55960916 15.49545212 21.36772807 7 11 C5.88625 9.4840625 5.88625 9.4840625 4.75 7.9375 C-4.27377648 -2.63320959 -20.29172205 -10.02246362 -33.95703125 -11.3984375 C-37.63489241 -11.67538617 -41.31442048 -11.85749093 -45 -12 C-45 -12.33 -45 -12.66 -45 -13 C-28.23602976 -15.43347955 -13.14713202 -10.66978065 0 0 Z " fill="#242424" transform="translate(291,164)"/>
<path d="M0 0 C6.27 0 12.54 0 19 0 C19 1.65 19 3.3 19 5 C16.69 5 14.38 5 12 5 C12 10.28 12 15.56 12 21 C10.35 21 8.7 21 7 21 C7 15.72 7 10.44 7 5 C4.69 5 2.38 5 0 5 C0 3.35 0 1.7 0 0 Z " fill="#191919" transform="translate(177,318)"/>
<path d="M0 0 C3.60700823 1.11489345 5.0980887 2.16162999 7.4375 5.0625 C7.1075 5.7225 6.7775 6.3825 6.4375 7.0625 C6.086875 6.5675 5.73625 6.0725 5.375 5.5625 C2.49375711 3.33186034 -0.03259026 3.86269379 -3.5625 4.0625 C-3.8925 4.7225 -4.2225 5.3825 -4.5625 6.0625 C-5.2225 6.0625 -5.8825 6.0625 -6.5625 6.0625 C-6.5625 6.7225 -6.5625 7.3825 -6.5625 8.0625 C-5.95921875 8.00449219 -5.3559375 7.94648438 -4.734375 7.88671875 C-2.25879341 7.74696818 -0.0186015 7.70317362 2.4375 8.0625 C5 10.5625 5 10.5625 6.4375 13.0625 C3.7975 15.3725 1.1575 17.6825 -1.5625 20.0625 C-7.44485294 17.12132353 -7.44485294 17.12132353 -9.5625 14.0625 C-10.03041327 9.25739068 -9.14386876 5.91745406 -6.4375 1.9375 C-3.5625 0.0625 -3.5625 0.0625 0 0 Z " fill="#030303" transform="translate(277.5625,254.9375)"/>
<path d="M0 0 C2.32421875 -0.21875 2.32421875 -0.21875 5 0 C6.58203125 1.53125 6.58203125 1.53125 7.8125 3.5 C8.23144531 4.1496875 8.65039062 4.799375 9.08203125 5.46875 C9.38496094 5.9740625 9.68789062 6.479375 10 7 C11.32 4.69 12.64 2.38 14 0 C15.98 0 17.96 0 20 0 C19.59007812 0.67804688 19.18015625 1.35609375 18.7578125 2.0546875 C15.13338752 8.31505792 12.90419687 13.81319387 12 21 C10.35 21 8.7 21 7 21 C6.95875 19.7625 6.9175 18.525 6.875 17.25 C6.20967603 10.83218264 3.08016709 5.56690749 0 0 Z " fill="#111111" transform="translate(200,318)"/>
<path d="M0 0 C3.27184686 -0.07942346 6.542868 -0.12814795 9.81542969 -0.16748047 C11.359646 -0.19974731 11.359646 -0.19974731 12.93505859 -0.23266602 C20.36463149 -0.26416237 26.94805215 0.98246555 34.06542969 3.08251953 C34.06542969 3.41251953 34.06542969 3.74251953 34.06542969 4.08251953 C23.17542969 3.58751953 23.17542969 3.58751953 12.06542969 3.08251953 C12.06542969 3.41251953 12.06542969 3.74251953 12.06542969 4.08251953 C10.60073242 4.12010376 10.60073242 4.12010376 9.10644531 4.15844727 C5.40112353 4.25431123 1.69591375 4.35405578 -2.00927734 4.45483398 C-3.59746641 4.49752036 -5.18568225 4.53922454 -6.77392578 4.57983398 C-17.51366664 4.85529916 -28.21712161 5.33417129 -38.93457031 6.08251953 C-38.60457031 5.42251953 -38.27457031 4.76251953 -37.93457031 4.08251953 C-35.06660836 3.44822953 -32.27293583 2.94388902 -29.37207031 2.52001953 C-28.07487061 2.32605591 -28.07487061 2.32605591 -26.75146484 2.12817383 C-17.84265483 0.84858643 -8.99025809 0.25280426 0 0 Z " fill="#676767" transform="translate(265.9345703125,208.91748046875)"/>
<path d="M0 0 C0.66 0 1.32 0 2 0 C3.99785435 4.1205746 4.17835515 7.45194365 4 12 C3.67 11.01 3.34 10.02 3 9 C2.05125 9.495 1.1025 9.99 0.125 10.5 C-3 12 -3 12 -5 12 C-4.67 14.97 -4.34 17.94 -4 21 C-5.32 19.35 -6.64 17.7 -8 16 C-8.33 17.98 -8.66 19.96 -9 22 C-9.33 22 -9.66 22 -10 22 C-10 18.7 -10 15.4 -10 12 C-11.98 11.34 -13.96 10.68 -16 10 C-13 9 -13 9 -11 9 C-12.32 7.02 -13.64 5.04 -15 3 C-14.67 2.34 -14.34 1.68 -14 1 C-12.35 2.65 -10.7 4.3 -9 6 C-5.02385628 4.67461876 -2.88810116 2.98769086 0 0 Z " fill="#A9A9A9" transform="translate(283,268)"/>
<path d="M0 0 C1.35158203 0.15275391 1.35158203 0.15275391 2.73046875 0.30859375 C3.41753906 0.39238281 4.10460937 0.47617188 4.8125 0.5625 C4.8125 2.2125 4.8125 3.8625 4.8125 5.5625 C5.8025 5.2325 6.7925 4.9025 7.8125 4.5625 C9.20689664 4.49584624 10.60419875 4.47711801 12 4.5 C13.8871875 4.5309375 13.8871875 4.5309375 15.8125 4.5625 C8.37416129 9.52139247 -0.56117472 8.8024905 -9.1875 8.5625 C-9.8475 7.2425 -10.5075 5.9225 -11.1875 4.5625 C-7.96421871 -0.19567714 -5.57503671 -0.65162767 0 0 Z " fill="#CDCDCD" transform="translate(298.1875,231.4375)"/>
<path d="M0 0 C8.15384615 2.25641026 8.15384615 2.25641026 11.0625 4.8125 C12.2757829 7.64349343 12.20768405 9.95396725 12 13 C10.70990357 13.50403768 9.41786211 14.00309926 8.125 14.5 C7.40570313 14.7784375 6.68640625 15.056875 5.9453125 15.34375 C4 16 4 16 2 16 C1.814375 14.4840625 1.814375 14.4840625 1.625 12.9375 C1.08419641 8.98298715 1.08419641 8.98298715 -0.125 5.1875 C-1 2 -1 2 0 0 Z " fill="#EEEEEE" transform="translate(302,218)"/>
<path d="M0 0 C0 2.64 0 5.28 0 8 C-0.33 8 -0.66 8 -1 8 C-1 6.35 -1 4.7 -1 3 C-1.66 3 -2.32 3 -3 3 C-3 5.97 -3 8.94 -3 12 C-8.94 11.01 -8.94 11.01 -15 10 C-12 5 -12 5 -11 4 C-11.598125 4.165 -12.19625 4.33 -12.8125 4.5 C-15 5 -15 5 -18 5 C-17.67 4.01 -17.34 3.02 -17 2 C-15.10507994 1.66151348 -13.20901534 1.32943089 -11.3125 1 C-9.72888672 0.7215625 -9.72888672 0.7215625 -8.11328125 0.4375 C-5.35095938 0.04931926 -2.78257957 -0.08259976 0 0 Z " fill="#303030" transform="translate(255,270)"/>
<path d="M0 0 C0.99 1.32 1.98 2.64 3 4 C2.67 4.66 2.34 5.32 2 6 C1.34 5.67 0.68 5.34 0 5 C-0.66 6.98 -1.32 8.96 -2 11 C0.475 11.99 0.475 11.99 3 13 C3.02689216 14.47906892 3.04634621 15.95827483 3.0625 17.4375 C3.07410156 18.26121094 3.08570313 19.08492188 3.09765625 19.93359375 C3 22 3 22 2 23 C2.99 23.66 3.98 24.32 5 25 C-2.75 25.125 -2.75 25.125 -5 24 C-5.66534641 14.69993576 -4.57756394 8.15787289 0 0 Z " fill="#454545" transform="translate(166,259)"/>
<path d="M0 0 C0 1.98 0 3.96 0 6 C-8.35104207 6.68271293 -16.61988971 7.15392039 -25 7 C-24.67 5.68 -24.34 4.36 -24 3 C-22.02 2.67 -20.04 2.34 -18 2 C-18 1.67 -18 1.34 -18 1 C-11.95170514 0.10395632 -6.1105424 -0.11269443 0 0 Z " fill="#F9F9F9" transform="translate(314,280)"/>
<path d="M0 0 C0.66 0.33 1.32 0.66 2 1 C1.09522263 2.46573934 0.17565859 3.92235756 -0.75 5.375 C-1.26046875 6.18710938 -1.7709375 6.99921875 -2.296875 7.8359375 C-4.1149924 10.1461142 -5.23951797 11.05534835 -8 12 C-10.93771385 12.16628569 -13.0618752 11.66344754 -16 11 C-17.68979836 8.81734379 -18 7.72785349 -18 5 C-14.535 4.505 -14.535 4.505 -11 4 C-10.67 3.01 -10.34 2.02 -10 1 C-10 1.66 -10 2.32 -10 3 C-8.02 2.67 -6.04 2.34 -4 2 C-4.99 2.495 -4.99 2.495 -6 3 C-6 4.32 -6 5.64 -6 7 C-5.34 7 -4.68 7 -4 7 C-3.67 5.02 -3.34 3.04 -3 1 C-2.01 0.67 -1.02 0.34 0 0 Z " fill="#161616" transform="translate(258,246)"/>
<path d="M0 0 C1.65 0 3.3 0 5 0 C5 6.93 5 13.86 5 21 C3.35 21 1.7 21 0 21 C0 14.07 0 7.14 0 0 Z " fill="#1A1A1A" transform="translate(313,318)"/>
<path d="M0 0 C1.65 0 3.3 0 5 0 C5 6.93 5 13.86 5 21 C3.35 21 1.7 21 0 21 C0 14.07 0 7.14 0 0 Z " fill="#0F0F0F" transform="translate(166,318)"/>
<path d="M0 0 C0.66 1.65 1.32 3.3 2 5 C-1.02089478 5.02716089 -4.04154129 5.04691657 -7.0625 5.0625 C-7.91005859 5.07087891 -8.75761719 5.07925781 -9.63085938 5.08789062 C-14.5361722 5.10683006 -19.16444755 4.83326345 -24 4 C-23.67 3.01 -23.34 2.02 -23 1 C-19.91675903 0.83159521 -16.83339379 0.66558138 -13.75 0.5 C-12.87730469 0.45230469 -12.00460937 0.40460938 -11.10546875 0.35546875 C-10.26113281 0.31035156 -9.41679687 0.26523437 -8.546875 0.21875 C-7.38430176 0.1559082 -7.38430176 0.1559082 -6.19824219 0.09179688 C-4.13373418 0.00558463 -2.0663073 0 0 0 Z " fill="#EEEEEE" transform="translate(311,288)"/>
<path d="M0 0 C0.66 0.33 1.32 0.66 2 1 C1.46375 1.33 0.9275 1.66 0.375 2 C-1.23831789 3.87266716 -1.23831789 3.87266716 -0.75390625 5.98046875 C-0.23438369 8.00481529 0.37848362 10.0046053 1 12 C0.34 12 -0.32 12 -1 12 C-1 12.66 -1 13.32 -1 14 C-1.61875 14.144375 -2.2375 14.28875 -2.875 14.4375 C-5.03258322 14.93152225 -5.03258322 14.93152225 -7 16 C-7.99 12.7 -8.98 9.4 -10 6 C-6.77413155 2.77413155 -4.2488305 1.54502927 0 0 Z " fill="#636363" transform="translate(179,243)"/>
<path d="M0 0 C13.70903428 -0.11916117 27.32159605 0.04370709 41 1 C41 1.66 41 2.32 41 3 C36.928994 3.05009283 32.85811168 3.08604089 28.78686523 3.10986328 C27.40695056 3.11981266 26.02705635 3.13337705 24.6472168 3.15087891 C16.19223657 3.25529929 8.25189996 2.9269278 0 1 C0 0.67 0 0.34 0 0 Z " fill="#383838" transform="translate(316,296)"/>
<path d="M0 0 C0.66 0 1.32 0 2 0 C2.99 2.97 3.98 5.94 5 9 C5.66 9 6.32 9 7 9 C6.625 10.9375 6.625 10.9375 6 13 C2.98131566 14.50934217 0.32702771 14.17510672 -3 14 C-3.99 13.34 -4.98 12.68 -6 12 C-5.67 10.68 -5.34 9.36 -5 8 C-3.35 8 -1.7 8 0 8 C-0.33 7.34 -0.66 6.68 -1 6 C-0.34 6 0.32 6 1 6 C0.67 4.02 0.34 2.04 0 0 Z " fill="#EBEBEB" transform="translate(168,275)"/>
<path d="M0 0 C0.66 0 1.32 0 2 0 C2 11.55 2 23.1 2 35 C1.01 35 0.02 35 -1 35 C-0.67 23.45 -0.34 11.9 0 0 Z " fill="#FEFEFE" transform="translate(312,244)"/>
<path d="M0 0 C0.66 0.33 1.32 0.66 2 1 C3.70363822 1.22622081 5.41328701 1.40888473 7.125 1.5625 C8.03507813 1.64628906 8.94515625 1.73007813 9.8828125 1.81640625 C10.58148438 1.87699219 11.28015625 1.93757812 12 2 C12 2.66 12 3.32 12 4 C15.3 4.33 18.6 4.66 22 5 C22 5.33 22 5.66 22 6 C14.41 6.33 6.82 6.66 -1 7 C-1.33 6.34 -1.66 5.68 -2 5 C-1.34 4.67 -0.68 4.34 0 4 C0 2.68 0 1.36 0 0 Z " fill="#818181" transform="translate(205,254)"/>
<path d="M0 0 C1.65 0 3.3 0 5 0 C5.33 0.99 5.66 1.98 6 3 C9.51190809 4.22969878 9.51190809 4.22969878 13 5 C11 7 11 7 8.125 7.25 C5 7 5 7 3.2265625 6.0234375 C0.22801028 4.6451556 -2.46684855 4.57198909 -5.75 4.375 C-6.92046875 4.30023438 -8.0909375 4.22546875 -9.296875 4.1484375 C-10.18890625 4.09945313 -11.0809375 4.05046875 -12 4 C-11.67 3.34 -11.34 2.68 -11 2 C-10.00097656 2.01160156 -9.00195312 2.02320313 -7.97265625 2.03515625 C-6.68230469 2.04417969 -5.39195312 2.05320312 -4.0625 2.0625 C-2.13083984 2.07990234 -2.13083984 2.07990234 -0.16015625 2.09765625 C2.86298403 2.36532549 2.86298403 2.36532549 4 1 C2.68 0.67 1.36 0.34 0 0 Z " fill="#6F6F6F" transform="translate(191,256)"/>
<path d="M0 0 C0.99 0.33 1.98 0.66 3 1 C2.74605469 1.63164062 2.49210938 2.26328125 2.23046875 2.9140625 C-0.34268106 9.60232455 -1.98985842 16.18029096 -3.2890625 23.2265625 C-3.52367187 24.14179688 -3.75828125 25.05703125 -4 26 C-4.66 26.33 -5.32 26.66 -6 27 C-6.81625468 17.85794758 -4.10040259 8.20080517 0 0 Z " fill="#212121" transform="translate(190,187)"/>
<path d="M0 0 C3.1875 -0.375 3.1875 -0.375 7 0 C9.1403498 1.81188028 10.38988302 3.65801167 12 6 C10.34385343 6.38218767 8.67542976 6.71395102 7 7 C6.67 6.67 6.34 6.34 6 6 C4.48530552 5.76807135 2.96245438 5.58784762 1.4375 5.4375 C0.61121094 5.35371094 -0.21507812 5.26992188 -1.06640625 5.18359375 C-1.70449219 5.12300781 -2.34257812 5.06242187 -3 5 C-3 4.34 -3 3.68 -3 3 C-2.34 3 -1.68 3 -1 3 C-0.67 2.01 -0.34 1.02 0 0 Z " fill="#AEAEAE" transform="translate(274,258)"/>
<path d="M0 0 C0.66 0 1.32 0 2 0 C5.17670228 6.38295528 8.38557192 12.84328423 6 20 C7.98 20 9.96 20 12 20 C12 20.33 12 20.66 12 21 C11.05125 21.12375 10.1025 21.2475 9.125 21.375 C5.91332809 21.71687177 5.91332809 21.71687177 4 24 C2.96320151 20.65034333 2.98940616 17.73928145 3.125 14.25 C3.19248461 8.74325605 2.29637357 4.97547608 0 0 Z " fill="#5A5A5A" transform="translate(285,262)"/>
<path d="M0 0 C0 0.99 0 1.98 0 3 C-11.385 3.99 -11.385 3.99 -23 5 C-23.33 4.34 -23.66 3.68 -24 3 C-22.02 2.67 -20.04 2.34 -18 2 C-18 1.67 -18 1.34 -18 1 C-11.95170514 0.10395632 -6.1105424 -0.11269443 0 0 Z " fill="#C7C7C7" transform="translate(314,280)"/>
<path d="M0 0 C2.31 0 4.62 0 7 0 C7.625 2.3125 7.625 2.3125 8 5 C7.01 6.485 7.01 6.485 6 8 C3.69 7.67 1.38 7.34 -1 7 C-1 3 -1 3 0 0 Z " fill="#E9E9E9" transform="translate(198,253)"/>
<path d="M0 0 C0.66 0.99 1.32 1.98 2 3 C2.66 3.33 3.32 3.66 4 4 C3.01 4.33 2.02 4.66 1 5 C1.33 6.32 1.66 7.64 2 9 C-0.31 9.33 -2.62 9.66 -5 10 C-7 6.25 -7 6.25 -7 4 C-3.535 3.505 -3.535 3.505 0 3 C0 2.01 0 1.02 0 0 Z " fill="#666666" transform="translate(247,247)"/>
<path d="M0 0 C4.455 0.99 4.455 0.99 9 2 C8.67 2.804375 8.34 3.60875 8 4.4375 C6.93940959 6.69681125 6.93940959 6.69681125 7 8 C2.545 8.495 2.545 8.495 -2 9 C-1.34 6.03 -0.68 3.06 0 0 Z " fill="#0C0C0C" transform="translate(281,231)"/>
<path d="M0 0 C0 0.66 0 1.32 0 2 C-0.928125 2.3403125 -0.928125 2.3403125 -1.875 2.6875 C-4.61410209 4.37929835 -5.05024472 5.99244161 -6 9 C-6.66 9 -7.32 9 -8 9 C-8.33 7.68 -8.66 6.36 -9 5 C-9.99 5 -10.98 5 -12 5 C-11.67 3.68 -11.34 2.36 -11 1 C-7.32589215 -0.17571451 -3.83070817 -0.07366746 0 0 Z " fill="#E5E5E5" transform="translate(260,244)"/>
<path d="M0 0 C0 0.99 0 1.98 0 3 C-2.72876308 3.33695862 -5.45793163 3.66968429 -8.1875 4 C-9.34088867 4.14308594 -9.34088867 4.14308594 -10.51757812 4.2890625 C-14.36928811 4.75192894 -18.11170851 5.12467468 -22 5 C-21.67 4.34 -21.34 3.68 -21 3 C-19.17407227 2.49755859 -19.17407227 2.49755859 -16.81640625 2.1484375 C-15.97142578 2.01953125 -15.12644531 1.890625 -14.25585938 1.7578125 C-13.36705078 1.63148438 -12.47824219 1.50515625 -11.5625 1.375 C-10.67755859 1.2409375 -9.79261719 1.106875 -8.88085938 0.96875 C-2.3912229 0 -2.3912229 0 0 0 Z " fill="#808080" transform="translate(249,210)"/>
<path d="M0 0 C4.48208398 3.79946774 5.76315293 9.44091017 7 15 C7.03560148 18.43109284 6.68366304 21.64113375 6 25 C5.67 25 5.34 25 5 25 C4.80664062 23.81921875 4.61328125 22.6384375 4.4140625 21.421875 C4.15137724 19.86452669 3.88833782 18.30723809 3.625 16.75 C3.49867188 15.97269531 3.37234375 15.19539062 3.2421875 14.39453125 C2.58366998 10.54220374 1.83342386 7.47553393 0 4 C0 2.68 0 1.36 0 0 Z " fill="#252525" transform="translate(308,187)"/>
<path d="M0 0 C0.99 0.33 1.98 0.66 3 1 C2.67 1.66 2.34 2.32 2 3 C3.32 2.67 4.64 2.34 6 2 C3.69190026 7.19644801 1.43825885 11.26251886 -3 15 C-3.66 15 -4.32 15 -5 15 C-3.34832443 11.4213696 -1.21713508 8.25179812 1 5 C0.34 3.68 -0.32 2.36 -1 1 C-0.67 0.67 -0.34 0.34 0 0 Z " fill="#C1C1C1" transform="translate(227,265)"/>
<path d="M0 0 C3.60700823 1.11489345 5.0980887 2.16162999 7.4375 5.0625 C7.1075 5.7225 6.7775 6.3825 6.4375 7.0625 C6.086875 6.5675 5.73625 6.0725 5.375 5.5625 C2.49375711 3.33186034 -0.03259026 3.86269379 -3.5625 4.0625 C-3.8925 4.7225 -4.2225 5.3825 -4.5625 6.0625 C-5.2225 6.0625 -5.8825 6.0625 -6.5625 6.0625 C-6.2325 7.0525 -5.9025 8.0425 -5.5625 9.0625 C-6.2225 9.0625 -6.8825 9.0625 -7.5625 9.0625 C-8.375 7.375 -8.375 7.375 -8.5625 5.0625 C-5.90251507 1.3218962 -4.66383981 0.08182175 0 0 Z " fill="#212121" transform="translate(277.5625,254.9375)"/>
<path d="M0 0 C0.66 0.66 1.32 1.32 2 2 C1.609375 4.43359375 1.609375 4.43359375 0.75 7.4375 C-0.8324779 13.25398545 -2.00570252 19.05761036 -3 25 C-3.33 25 -3.66 25 -4 25 C-4.58974578 15.90808586 -3.08745074 8.54562257 0 0 Z " fill="#8F8F8F" transform="translate(268,261)"/>
<path d="M0 0 C0.66 0 1.32 0 2 0 C2.33 3.63 2.66 7.26 3 11 C-1.8333472 11.08333357 -6.23692563 10.95261487 -11 10 C-11 9.67 -11 9.34 -11 9 C-7.37 9 -3.74 9 0 9 C0 6.03 0 3.06 0 0 Z " fill="#131313" transform="translate(252,273)"/>
<path d="M0 0 C1.07354736 0.05760498 2.14709473 0.11520996 3.25317383 0.17456055 C4.41655273 0.2293457 5.57993164 0.28413086 6.77856445 0.34057617 C8.60097656 0.44982422 8.60097656 0.44982422 10.46020508 0.5612793 C11.68674805 0.62250977 12.91329102 0.68374023 14.17700195 0.74682617 C17.2099093 0.90024172 20.2413185 1.06811739 23.27270508 1.2487793 C23.27270508 1.5787793 23.27270508 1.9087793 23.27270508 2.2487793 C13.70270508 2.5787793 4.13270508 2.9087793 -5.72729492 3.2487793 C-2.72729492 0.2487793 -2.72729492 0.2487793 0 0 Z " fill="#747474" transform="translate(197.727294921875,293.751220703125)"/>
<path d="M0 0 C-1.65 1.32 -3.3 2.64 -5 4 C-5.33 3.34 -5.66 2.68 -6 2 C-7.01320313 2.20496094 -8.02640625 2.40992188 -9.0703125 2.62109375 C-10.4218645 2.89328131 -11.77342759 3.16541379 -13.125 3.4375 C-14.12273437 3.63956055 -14.12273437 3.63956055 -15.140625 3.84570312 C-19.08346807 4.63813727 -23.02912121 5.36292755 -27 6 C-20.47740101 0.11977818 -8.46751978 -0.51841958 0 0 Z " fill="#646464" transform="translate(266,242)"/>
<path d="M0 0 C0.33 1.98 0.66 3.96 1 6 C-2.4019487 8.09350689 -5.05272412 8.17942163 -9 8 C-3.28571429 0 -3.28571429 0 0 0 Z " fill="#A7A7A7" transform="translate(237,249)"/>
<path d="M0 0 C3.53480483 1.45596586 5.31988133 3.29147443 7.625 6.3125 C8.21539062 7.07175781 8.80578125 7.83101562 9.4140625 8.61328125 C11.00589839 11.00887664 12.03416822 13.29853981 13 16 C12.34 16.33 11.68 16.66 11 17 C10.31164062 15.89591797 10.31164062 15.89591797 9.609375 14.76953125 C8.99578125 13.79371094 8.3821875 12.81789062 7.75 11.8125 C6.84507812 10.36810547 6.84507812 10.36810547 5.921875 8.89453125 C4.08449577 6.12725888 2.07768655 3.58791489 0 1 C0 0.67 0 0.34 0 0 Z " fill="#191919" transform="translate(296,171)"/>
<path d="M0 0 C1.98 0 3.96 0 6 0 C6.38218767 1.65614657 6.71395102 3.32457024 7 5 C6 6 6 6 2.9375 6.0625 C1.4834375 6.0315625 1.4834375 6.0315625 0 6 C0 4.02 0 2.04 0 0 Z " fill="#F3F3F3" transform="translate(268,322)"/>
<path d="M0 0 C2.475 0.495 2.475 0.495 5 1 C7.0662997 6.71271093 7.0006709 11.03654233 6 17 C5.67 17 5.34 17 5 17 C4.89042969 16.25234375 4.78085937 15.5046875 4.66796875 14.734375 C4.50941406 13.74953125 4.35085938 12.7646875 4.1875 11.75 C3.96126953 10.28820312 3.96126953 10.28820312 3.73046875 8.796875 C2.96331725 5.85954628 1.88241663 4.33110223 0 2 C0 1.34 0 0.68 0 0 Z " fill="#F4F4F4" transform="translate(282,264)"/>
<path d="M0 0 C0.66 0.33 1.32 0.66 2 1 C2 2.98 2 4.96 2 7 C-0.31 7.33 -2.62 7.66 -5 8 C-5 5 -5 5 -2.5 2.3125 C-1.675 1.549375 -0.85 0.78625 0 0 Z " fill="#0A0A0A" transform="translate(284,269)"/>
<path d="M0 0 C-0.33 0.99 -0.66 1.98 -1 3 C-4.91390601 4.47694566 -7.99434629 5.60226148 -12 4 C-11.67 3.01 -11.34 2.02 -11 1 C-9.2578125 0.234375 -9.2578125 0.234375 -7.125 -0.25 C-6.07699219 -0.50523437 -6.07699219 -0.50523437 -5.0078125 -0.765625 C-3 -1 -3 -1 0 0 Z " fill="#F3F3F3" transform="translate(248,247)"/>
<path d="M0 0 C1.98 0.495 1.98 0.495 4 1 C4.33 3.97 4.66 6.94 5 10 C3.68 9.67 2.36 9.34 1 9 C0.66666667 7.66666667 0.33333333 6.33333333 0 5 C-0.20625 4.278125 -0.4125 3.55625 -0.625 2.8125 C-0.74875 2.214375 -0.8725 1.61625 -1 1 C-0.67 0.67 -0.34 0.34 0 0 Z " fill="#E9E9E9" transform="translate(173,247)"/>
<path d="M0 0 C0.66 0 1.32 0 2 0 C2.99 2.97 3.98 5.94 5 9 C5.66 9 6.32 9 7 9 C6.67 9.66 6.34 10.32 6 11 C3.03 10.505 3.03 10.505 0 10 C-0.33 8.68 -0.66 7.36 -1 6 C-0.34 6 0.32 6 1 6 C0.67 4.02 0.34 2.04 0 0 Z " fill="#BBBBBB" transform="translate(168,275)"/>
<path d="M0 0 C0.66 0.33 1.32 0.66 2 1 C3.70363822 1.22622081 5.41328701 1.40888473 7.125 1.5625 C8.03507813 1.64628906 8.94515625 1.73007813 9.8828125 1.81640625 C10.58148438 1.87699219 11.28015625 1.93757812 12 2 C12 2.66 12 3.32 12 4 C8.37 4.33 4.74 4.66 1 5 C1 5.66 1 6.32 1 7 C0.01 6.67 -0.98 6.34 -2 6 C-1.67 5.38125 -1.34 4.7625 -1 4.125 C0.14193235 2.08981656 0.14193235 2.08981656 0 0 Z " fill="#535353" transform="translate(205,254)"/>
<path d="M0 0 C0.66 1.32 1.32 2.64 2 4 C3.98 3.67 5.96 3.34 8 3 C8 3.66 8 4.32 8 5 C6.35 5 4.7 5 3 5 C3 8.96 3 12.92 3 17 C2.34 17 1.68 17 1 17 C1 13.37 1 9.74 1 6 C-0.32 5.34 -1.64 4.68 -3 4 C-2.01 3.67 -1.02 3.34 0 3 C0 2.01 0 1.02 0 0 Z " fill="#A7A7A7" transform="translate(284,245)"/>
<path d="M0 0 C0.66 1.32 1.32 2.64 2 4 C1.34 4 0.68 4 0 4 C-0.12375 4.9075 -0.2475 5.815 -0.375 6.75 C-0.92109677 9.58970323 -1.57263803 11.52590591 -3 14 C-3.66 13.67 -4.32 13.34 -5 13 C-4.67 11.68 -4.34 10.36 -4 9 C-5.65 9.33 -7.3 9.66 -9 10 C-9 9.34 -9 8.68 -9 8 C-7.6078125 7.9690625 -7.6078125 7.9690625 -6.1875 7.9375 C-2.99303786 7.37155641 -2.99303786 7.37155641 -1.93359375 5.375 C-1.20025229 3.61781467 -0.59224075 1.80962451 0 0 Z " fill="#616161" transform="translate(281,227)"/>
<path d="M0 0 C4.29 0 8.58 0 13 0 C13 0.33 13 0.66 13 1 C11.9275 1.103125 10.855 1.20625 9.75 1.3125 C6.04454099 1.99183415 4.80155724 2.69872084 2 5 C1.01 5 0.02 5 -1 5 C-0.67 3.35 -0.34 1.7 0 0 Z " fill="#313131" transform="translate(288,240)"/>
<path d="M0 0 C0.99 0.33 1.98 0.66 3 1 C1.68 4.63 0.36 8.26 -1 12 C-1.99 12 -2.98 12 -4 12 C-3.52309796 10.37433394 -3.04340334 8.74948689 -2.5625 7.125 C-2.29566406 6.22007812 -2.02882812 5.31515625 -1.75390625 4.3828125 C-1 2 -1 2 0 0 Z " fill="#2A2A2A" transform="translate(190,187)"/>
<path d="M0 0 C0.66 0.33 1.32 0.66 2 1 C1.54961229 5.84166786 0.40027839 8.49668287 -3 12 C-3.66 12 -4.32 12 -5 12 C-4.731875 11.505 -4.46375 11.01 -4.1875 10.5 C-2.56124507 7.0763054 -1.30484829 3.55867715 0 0 Z " fill="#E3E3E3" transform="translate(286,280)"/>
<path d="M0 0 C0.66 0.66 1.32 1.32 2 2 C1.96712417 4.72869407 1.43602229 7.2966618 1 10 C3.31 10.66 5.62 11.32 8 12 C8 12.33 8 12.66 8 13 C5.36 13 2.72 13 0 13 C0 8.71 0 4.42 0 0 Z " fill="#0B0B0B" transform="translate(163,271)"/>
<path d="M0 0 C0 1.65 0 3.3 0 5 C-1.32 5.33 -2.64 5.66 -4 6 C-4.66 4.35 -5.32 2.7 -6 1 C-3 0 -3 0 0 0 Z " fill="#E8E8E8" transform="translate(314,237)"/>
<path d="M0 0 C1.98 0.66 3.96 1.32 6 2 C6 2.66 6 3.32 6 4 C7.98 4 9.96 4 12 4 C12 4.33 12 4.66 12 5 C10.56260487 5.02712066 9.12506137 5.04645067 7.6875 5.0625 C6.48673828 5.07990234 6.48673828 5.07990234 5.26171875 5.09765625 C3 5 3 5 0 4 C0 2.68 0 1.36 0 0 Z " fill="#C0C0C0" transform="translate(177,277)"/>
<path d="M0 0 C1.32 0.33 2.64 0.66 4 1 C4 2.32 4 3.64 4 5 C-0.21912747 4.5205537 -2.79663178 3.83374881 -6 1 C-3.525 1.495 -3.525 1.495 -1 2 C-0.67 1.34 -0.34 0.68 0 0 Z " fill="#717171" transform="translate(273,276)"/>
<path d="M0 0 C0.33 0.99 0.66 1.98 1 3 C-0.81115956 4.81115956 -3.61278227 4.38199448 -6.0625 4.5625 C-7.16722656 4.64628906 -8.27195312 4.73007813 -9.41015625 4.81640625 C-10.26480469 4.87699219 -11.11945313 4.93757812 -12 5 C-9.81403638 2.81403638 -8.92654486 2.57768169 -6 1.9375 C-3.78779893 1.44544792 -2.03349727 1.01674863 0 0 Z " fill="#FDFDFD" transform="translate(301,235)"/>
<path d="M0 0 C1.27875 0.28875 2.5575 0.5775 3.875 0.875 C4.95394531 1.11863281 4.95394531 1.11863281 6.0546875 1.3671875 C8 2 8 2 10 4 C3.375 4.25 3.375 4.25 0 2 C0 1.34 0 0.68 0 0 Z " fill="#D0D0D0" transform="translate(162,285)"/>
<path d="M0 0 C1.65 0 3.3 0 5 0 C5.33 1.32 5.66 2.64 6 4 C4.35 4.33 2.7 4.66 1 5 C0.67 3.35 0.34 1.7 0 0 Z " fill="#C1C1C1" transform="translate(243,252)"/>
<path d="M0 0 C1.65 0 3.3 0 5 0 C5 0.66 5 1.32 5 2 C4.34 2 3.68 2 3 2 C3 2.99 3 3.98 3 5 C1.68 4.67 0.36 4.34 -1 4 C-0.67 2.68 -0.34 1.36 0 0 Z " fill="#9E9E9E" transform="translate(306,248)"/>
<path d="M0 0 C-3.23319447 2.15546298 -5.16896958 2.68074747 -9 3 C-9.99 2.34 -10.98 1.68 -12 1 C-9.22036907 -1.77963093 -3.39894022 -1.13298007 0 0 Z " fill="#878787" transform="translate(291,239)"/>
<path d="M0 0 C0.66 0.33 1.32 0.66 2 1 C1.21718695 2.33855056 0.42348123 3.67073644 -0.375 5 C-0.81585938 5.7425 -1.25671875 6.485 -1.7109375 7.25 C-2.34902344 8.11625 -2.34902344 8.11625 -3 9 C-3.66 9 -4.32 9 -5 9 C-3.7508258 5.54074837 -2.32472205 2.85306797 0 0 Z " fill="#171717" transform="translate(196,178)"/>
<path d="M0 0 C2.31 0 4.62 0 7 0 C6.67 0.99 6.34 1.98 6 3 C3.69 3 1.38 3 -1 3 C-0.67 2.01 -0.34 1.02 0 0 Z " fill="#C9C9C9" transform="translate(288,289)"/>
<path d="M0 0 C2.02907167 3.3146667 2.12742133 5.4315979 1.625 9.25 C1.51414062 10.14203125 1.40328125 11.0340625 1.2890625 11.953125 C1.19367188 12.62859375 1.09828125 13.3040625 1 14 C0.67 14 0.34 14 0 14 C-0.19456705 12.04235617 -0.38044247 10.08384679 -0.5625 8.125 C-0.66691406 7.03445312 -0.77132813 5.94390625 -0.87890625 4.8203125 C-1 2 -1 2 0 0 Z " fill="#434343" transform="translate(313,198)"/>
<path d="M0 0 C5.53846154 -0.36923077 5.53846154 -0.36923077 7.875 1.5 C8.24625 1.995 8.6175 2.49 9 3 C8.67 3.66 8.34 4.32 8 5 C5.36 3.68 2.72 2.36 0 1 C0 0.67 0 0.34 0 0 Z " fill="#EAEAEA" transform="translate(275,258)"/>
<path d="M0 0 C-0.66 0 -1.32 0 -2 0 C-2.33 1.65 -2.66 3.3 -3 5 C-3.99 5 -4.98 5 -6 5 C-6 3.33333333 -6 1.66666667 -6 0 C-3 -1 -3 -1 0 0 Z " fill="#282828" transform="translate(254,249)"/>
<path d="M0 0 C0 0.66 0 1.32 0 2 C-2.64 2 -5.28 2 -8 2 C-8 1.34 -8 0.68 -8 0 C-2.25 -1.125 -2.25 -1.125 0 0 Z " fill="#A6A6A6" transform="translate(236,291)"/>
<path d="M0 0 C2.31 1.98 4.62 3.96 7 6 C6.01 6.66 5.02 7.32 4 8 C0 2.25 0 2.25 0 0 Z " fill="#BEBEBE" transform="translate(268,269)"/>
<path d="M0 0 C-2.70879335 1.35439668 -5.00933268 1.06501451 -8 1 C-8.33 0.34 -8.66 -0.32 -9 -1 C-5.22102349 -2.0497157 -3.35080929 -2.10976881 0 0 Z " fill="#808080" transform="translate(204,262)"/>
<path d="M0 0 C2.64 0 5.28 0 8 0 C6.35 1.32 4.7 2.64 3 4 C2.67 3.34 2.34 2.68 2 2 C1.34 2 0.68 2 0 2 C0 1.34 0 0.68 0 0 Z " fill="#787878" transform="translate(258,242)"/>
<path d="M0 0 C3.68754757 0.49831724 5.60490662 1.10067643 8 4 C7.01 4.495 7.01 4.495 6 5 C3.98079663 3.69593116 1.98075027 2.36176581 0 1 C0 0.67 0 0.34 0 0 Z " fill="#191919" transform="translate(279,158)"/>
</svg>
